<svg width="48" height="48" viewBox="0 0 48 48" fill="none" xmlns="http://www.w3.org/2000/svg">
<g clip-path="url(#clip0_20_160)">
<path fill-rule="evenodd" clip-rule="evenodd" d="M10 0H38C43.524 0 48 4.478 48 10V38C48 43.522 43.524 48 38 48H10C4.478 48 0 43.522 0 38V10C0 4.478 4.478 0 10 0ZM10.0421 13.4406C10.0745 13.4082 10.2494 13.3419 10.4306 13.2931C10.7161 13.2164 12.4941 13.2041 23.7246 13.2007C35.2547 13.1971 36.7285 13.207 37.0466 13.2898C37.2433 13.341 37.4306 13.4092 37.4627 13.4413C37.528 13.5063 24.4968 26.5856 24.2202 26.7326C24.0117 26.8435 23.4926 26.8435 23.2841 26.7326C23.0053 26.5844 9.97641 13.5063 10.0421 13.4406ZM8.41977 23.9984C8.41977 15.8078 8.42511 15.3716 8.52959 15.072C8.59002 14.8987 8.65759 14.7569 8.67979 14.7569C8.70193 14.7569 10.7993 16.8363 13.3405 19.3777L17.961 23.9984L13.3405 28.6191C10.7993 31.1605 8.70193 33.2398 8.67979 33.2398C8.65759 33.2398 8.56689 33.0559 8.52959 32.9248C8.39108 32.438 8.39188 32.2725 8.40537 29.4836C8.41133 28.2517 8.41977 26.5079 8.41977 23.9984ZM29.5434 23.9984L34.1638 19.3777C36.705 16.8363 38.8024 14.7569 38.8245 14.7569C38.8467 14.7569 38.9143 14.8987 38.9747 15.072C39.0792 15.3716 39.0845 15.8078 39.0845 23.9984C39.0845 32.1889 39.0792 32.6251 38.9747 32.9248C38.9143 33.098 38.8467 33.2398 38.8245 33.2398C38.8024 33.2398 36.705 31.1605 34.1638 28.6191L29.5434 23.9984ZM10.0416 34.5555C10.0037 34.5177 11.5977 32.8825 14.5722 29.9079C17.0961 27.3837 19.1726 25.3186 19.1866 25.3186C19.2007 25.3186 19.8488 25.9486 20.627 26.7185C21.9172 27.9952 22.0839 28.1393 22.5188 28.3538L22.9958 28.5891H23.7522H24.5085L24.9855 28.3546C25.4219 28.1401 25.5837 28 26.8895 26.7063L28.3166 25.2924L32.9189 29.8948C35.9046 32.8805 37.5007 34.5176 37.4628 34.5555C37.4306 34.5876 37.2433 34.6557 37.0466 34.7069C36.7287 34.7897 35.249 34.8001 23.7522 34.8001C12.2553 34.8001 10.7756 34.7897 10.4577 34.7069C10.261 34.6557 10.0737 34.5876 10.0416 34.5555Z" fill="white"/>
</g>
<defs>
<clipPath id="clip0_20_160">
<rect width="48" height="48" fill="white"/>
</clipPath>
</defs>
</svg>
