<svg width="40" height="40" viewBox="0 0 40 40" fill="none" xmlns="http://www.w3.org/2000/svg">
<g clip-path="url(#clip0_261_12185)">
<path fill-rule="evenodd" clip-rule="evenodd" d="M8.33333 0H31.6667C36.27 0 40 3.73167 40 8.33333V31.6667C40 36.2683 36.27 40 31.6667 40H8.33333C3.73167 40 0 36.2683 0 31.6667V8.33333C0 3.73167 3.73167 0 8.33333 0ZM25.9321 23.1687L22.9402 25.2965C21.2918 24.3386 19.7782 23.1616 18.4399 21.7969C17.0032 20.3479 15.761 18.7147 14.745 16.9393L16.6448 15.3101C17.0406 14.9709 17.3097 14.5052 17.4074 13.9903C17.5051 13.4753 17.4254 12.9421 17.1817 12.4792L14.7609 7.88357C14.5998 7.57836 14.3726 7.31382 14.0962 7.10967C13.8197 6.90552 13.5012 6.76702 13.1644 6.70451C12.8276 6.642 12.4812 6.65708 12.1509 6.74864C11.8207 6.8402 11.5152 7.00586 11.2572 7.23329L10.5382 7.86519C8.81133 9.38635 7.78978 11.8864 8.63614 14.4186C9.99786 18.4239 12.2512 22.0604 15.2228 25.0483C19.3477 29.2142 23.5386 30.8549 25.9912 31.4937C27.9661 32.0061 29.834 31.3191 31.1514 30.2345L32.496 29.1269C32.7795 28.8935 33.003 28.5944 33.1477 28.2551C33.2924 27.9158 33.354 27.5463 33.3272 27.1778C33.3004 26.8094 33.1861 26.4529 32.9938 26.1386C32.8016 25.8243 32.5372 25.5614 32.223 25.3723L28.4052 23.0745C28.0277 22.847 27.593 22.7348 27.1537 22.7515C26.7144 22.7682 26.2893 22.9131 25.9298 23.1687H25.9321Z" fill="white"/>
</g>
<defs>
<clipPath id="clip0_261_12185">
<rect width="40" height="40" fill="white"/>
</clipPath>
</defs>
</svg>
