<svg width="41" height="40" viewBox="0 0 41 40" fill="none" xmlns="http://www.w3.org/2000/svg">
<g clip-path="url(#clip0_20_169)">
<path fill-rule="evenodd" clip-rule="evenodd" d="M8.83333 0H32.1667C36.77 0 40.5 3.73167 40.5 8.33333V31.6667C40.5 36.2683 36.77 40 32.1667 40H8.83333C4.23167 40 0.5 36.2683 0.5 31.6667V8.33333C0.5 3.73167 4.23167 0 8.83333 0ZM26.4321 23.1687L23.4402 25.2965C21.7918 24.3386 20.2782 23.1616 18.9399 21.7969C17.5032 20.3479 16.261 18.7147 15.245 16.9393L17.1448 15.3101C17.5406 14.9709 17.8097 14.5052 17.9074 13.9903C18.0051 13.4753 17.9254 12.9421 17.6817 12.4792L15.2609 7.88357C15.0998 7.57836 14.8726 7.31382 14.5962 7.10967C14.3197 6.90552 14.0012 6.76702 13.6644 6.70451C13.3276 6.642 12.9812 6.65708 12.6509 6.74864C12.3207 6.8402 12.0152 7.00586 11.7572 7.23329L11.0382 7.86519C9.31133 9.38635 8.28978 11.8864 9.13614 14.4186C10.4979 18.4239 12.7512 22.0604 15.7228 25.0483C19.8477 29.2142 24.0386 30.8549 26.4912 31.4937C28.4661 32.0061 30.334 31.3191 31.6514 30.2345L32.996 29.1269C33.2795 28.8935 33.503 28.5944 33.6477 28.2551C33.7924 27.9158 33.854 27.5463 33.8272 27.1778C33.8004 26.8094 33.6861 26.4529 33.4938 26.1386C33.3016 25.8243 33.0372 25.5614 32.723 25.3723L28.9052 23.0745C28.5277 22.847 28.093 22.7348 27.6537 22.7515C27.2144 22.7682 26.7893 22.9131 26.4298 23.1687H26.4321Z" fill="white"/>
</g>
<defs>
<clipPath id="clip0_20_169">
<rect width="40" height="40" fill="white" transform="translate(0.5)"/>
</clipPath>
</defs>
</svg>
