<svg width="40" height="40" viewBox="0 0 40 40" fill="none" xmlns="http://www.w3.org/2000/svg">
<g clip-path="url(#clip0_261_12190)">
<path fill-rule="evenodd" clip-rule="evenodd" d="M8.33333 0H31.6667C36.27 0 40 3.73167 40 8.33333V31.6667C40 36.2683 36.27 40 31.6667 40H8.33333C3.73167 40 0 36.2683 0 31.6667V8.33333C0 3.73167 3.73167 0 8.33333 0ZM11.8335 16.5C11.8335 11.985 15.4852 8.33333 20.0002 8.33333C24.5152 8.33333 28.1668 11.985 28.1668 16.5C28.1668 22.625 20.0002 31.6667 20.0002 31.6667C20.0002 31.6667 11.8335 22.625 11.8335 16.5ZM17.0835 16.5C17.0835 18.11 18.3902 19.4167 20.0002 19.4167C21.6102 19.4167 22.9168 18.11 22.9168 16.5C22.9168 14.89 21.6102 13.5833 20.0002 13.5833C18.3902 13.5833 17.0835 14.89 17.0835 16.5Z" fill="white"/>
</g>
<defs>
<clipPath id="clip0_261_12190">
<rect width="40" height="40" fill="white"/>
</clipPath>
</defs>
</svg>
