<svg width="32" height="32" viewBox="0 0 32 32" fill="none" xmlns="http://www.w3.org/2000/svg">
<path d="M17.619 16L25.8221 6.22188C25.9596 6.05938 25.844 5.8125 25.6315 5.8125H23.1378C22.9909 5.8125 22.8502 5.87812 22.7534 5.99062L15.9878 14.0563L9.22213 5.99062C9.12838 5.87812 8.98775 5.8125 8.83775 5.8125H6.344C6.1315 5.8125 6.01588 6.05938 6.15338 6.22188L14.3565 16L6.15338 25.7781C6.12257 25.8143 6.10281 25.8586 6.09644 25.9058C6.09007 25.9529 6.09735 26.0008 6.11742 26.0439C6.13749 26.087 6.16951 26.1235 6.20967 26.1489C6.24983 26.1744 6.29645 26.1878 6.344 26.1875H8.83775C8.98463 26.1875 9.12525 26.1219 9.22213 26.0094L15.9878 17.9438L22.7534 26.0094C22.8471 26.1219 22.9878 26.1875 23.1378 26.1875H25.6315C25.844 26.1875 25.9596 25.9406 25.8221 25.7781L17.619 16Z" fill="#1D1D1D"/>
</svg>
