<svg width="672" height="340" viewBox="0 0 672 340" fill="none" xmlns="http://www.w3.org/2000/svg">
<path d="M712 169.999C712 263.888 635.896 340 542 340C448.122 340 372 263.888 372 169.999C372 76.1105 448.122 0 542 0C635.896 0 712 76.1105 712 169.999Z" fill="#25293D"/>
<path d="M368.5 224.499C368.5 286.356 318.361 336.5 256.5 336.5C194.651 336.5 144.5 286.355 144.5 224.499C144.5 162.644 194.651 112.5 256.5 112.5C318.361 112.5 368.5 162.643 368.5 224.499Z" stroke="#25293D" stroke-width="7"/>
<path d="M141 269C141 308.212 109.439 340 70.5 340C31.5682 340 0 308.212 0 269C0 229.787 31.5682 198 70.5 198C109.439 198 141 229.787 141 269Z" fill="#25293D"/>
<path d="M281 205C281 202.791 279.209 201 277 201L241 201C238.791 201 237 202.791 237 205C237 207.209 238.791 209 241 209L273 209L273 241C273 243.209 274.791 245 277 245C279.209 245 281 243.209 281 241L281 205ZM239.828 247.828L279.828 207.828L274.172 202.172L234.172 242.172L239.828 247.828Z" fill="#25293D"/>
</svg>
