<svg xmlns="http://www.w3.org/2000/svg" width="1350" height="187" fill="none">
<g clip-path="url(#a)">
<path fill="#25293D" d="M92.926 185.557c-17.58 0-33.487-3.793-47.719-11.381-14.064-7.752-25.115-18.308-33.152-31.668C4.018 128.983 0 113.808 0 96.984 0 80.161 4.018 65.07 12.055 51.71c8.037-13.526 19.172-24.082 33.403-31.669C59.69 12.288 75.597 8.412 93.178 8.412c13.729 0 26.286 2.31 37.672 6.927 11.385 4.454 21.097 11.134 29.133 20.04l-16.324 15.587c-13.228-13.69-29.72-20.535-49.477-20.535-13.06 0-24.864 2.887-35.413 8.66-10.548 5.773-18.836 13.772-24.864 23.998-5.86 10.062-8.79 21.36-8.79 33.895 0 12.536 2.93 23.917 8.79 34.143 6.028 10.062 14.316 17.979 24.864 23.751 10.549 5.773 22.353 8.66 35.413 8.66 19.59 0 36.082-6.928 49.477-20.783l16.324 15.587c-8.036 8.907-17.831 15.67-29.384 20.288-11.386 4.618-23.943 6.927-37.673 6.927ZM179.74 183.578V0h24.11v183.578h-24.11ZM296.598 185.063c-14.231 0-26.789-2.886-37.673-8.659-10.716-5.773-19.087-13.69-25.115-23.751-5.86-10.062-8.79-21.607-8.79-34.638 0-13.03 2.846-24.576 8.539-34.637 5.86-10.061 13.813-17.896 23.859-23.504 10.215-5.773 21.682-8.66 34.408-8.66 12.893 0 24.278 2.805 34.156 8.413 9.88 5.607 17.582 13.525 23.107 23.751 5.692 10.061 8.539 21.854 8.539 35.379 0 .99-.084 2.145-.252 3.464 0 1.32-.082 2.557-.251 3.711H243.856v-17.071h100.712l-9.794 5.938c.166-8.412-1.591-15.917-5.275-22.514-3.683-6.598-8.79-11.711-15.321-15.34-6.361-3.793-13.812-5.69-22.352-5.69-8.371 0-15.822 1.897-22.351 5.69-6.532 3.629-11.638 8.825-15.322 15.587-3.683 6.598-5.525 14.185-5.525 22.762v3.958c0 8.742 2.01 16.577 6.028 23.504 4.185 6.763 9.963 12.041 17.33 15.835 7.367 3.793 15.822 5.69 25.366 5.69 7.87 0 14.984-1.32 21.347-3.959 6.529-2.639 12.223-6.597 17.079-11.875l13.311 15.339c-6.028 6.928-13.562 12.206-22.604 15.834-8.874 3.629-18.836 5.443-29.887 5.443ZM496.339 52.451l-58.267 131.127H413.46L355.191 52.451h25.116L426.016 157.6l46.715-105.149h23.608ZM557.708 185.063c-14.231 0-26.788-2.886-37.672-8.659-10.716-5.773-19.087-13.69-25.116-23.751-5.86-10.062-8.79-21.607-8.79-34.638 0-13.03 2.846-24.576 8.54-34.637 5.86-10.061 13.812-17.896 23.858-23.504 10.215-5.773 21.683-8.66 34.409-8.66 12.892 0 24.277 2.805 34.155 8.413 9.88 5.607 17.582 13.525 23.107 23.751 5.692 10.061 8.54 21.854 8.54 35.379 0 .99-.084 2.145-.253 3.464 0 1.32-.082 2.557-.25 3.711H504.967v-17.071h100.711l-9.794 5.938c.167-8.412-1.591-15.917-5.275-22.514-3.683-6.598-8.79-11.711-15.321-15.34-6.361-3.793-13.812-5.69-22.351-5.69-8.372 0-15.823 1.897-22.352 5.69-6.531 3.629-11.638 8.825-15.321 15.587-3.684 6.598-5.526 14.185-5.526 22.762v3.958c0 8.742 2.011 16.577 6.029 23.504 4.184 6.763 9.962 12.041 17.329 15.835 7.367 3.793 15.822 5.69 25.366 5.69 7.87 0 14.985-1.32 21.347-3.959 6.53-2.639 12.223-6.597 17.079-11.875l13.311 15.339c-6.028 6.928-13.561 12.206-22.604 15.834-8.874 3.629-18.836 5.443-29.887 5.443ZM723.455 186.264V7.367h20.596l94.82 144.105h-10.8V7.367h25.115v178.897h-20.594l-94.82-143.5h10.798v143.5h-25.115ZM933.31 186.264c-13.227 0-25.116-2.887-35.663-8.66-10.55-5.773-18.837-13.69-24.865-23.751-5.86-10.226-8.79-21.772-8.79-34.637 0-12.866 2.93-24.329 8.79-34.39 6.028-10.227 14.315-18.144 24.865-23.752 10.547-5.773 22.436-8.659 35.663-8.659 13.227 0 25.031 2.886 35.412 8.66 10.547 5.607 18.752 13.524 24.612 23.75 6.028 10.062 9.046 21.525 9.046 34.391 0 12.865-3.018 24.411-9.046 34.637-5.86 10.061-14.065 17.978-24.612 23.751-10.381 5.773-22.185 8.66-35.412 8.66Zm0-20.783c8.539 0 16.157-1.897 22.854-5.69 6.864-3.959 12.223-9.402 16.073-16.329 3.852-7.093 5.778-15.175 5.778-24.246 0-9.072-1.926-17.072-5.778-24-3.85-7.092-9.209-12.535-16.073-16.328-6.697-3.794-14.315-5.69-22.854-5.69-8.54 0-16.242 1.896-23.106 5.69-6.697 3.793-12.056 9.236-16.074 16.329-3.85 6.927-5.776 14.927-5.776 23.999 0 9.071 1.926 17.153 5.776 24.246 4.018 6.927 9.377 12.37 16.074 16.329 6.864 3.793 14.566 5.69 23.106 5.69ZM1129.85 53.653l-57.34 131.682h-24.62L994.753 53.653h25.117l40.53 106.139 45.84-106.139h23.61ZM1266.09 53.652v131.127h-23.11v-20.782c-5.35 7.257-12.14 12.783-20.34 16.576-8.2 3.794-17.25 5.691-27.12 5.691-12.9 0-24.45-2.804-34.66-8.412-10.22-5.608-18.25-13.443-24.11-23.504-5.69-10.227-8.54-21.937-8.54-35.132 0-13.196 2.85-24.824 8.54-34.885 5.86-10.062 13.89-17.896 24.11-23.504 10.21-5.608 21.76-8.412 34.66-8.412 9.54 0 18.33 1.814 26.37 5.443 8.03 3.464 14.73 8.66 20.09 15.587V53.652h24.11Zm-68.57 111.829c8.38 0 16-1.897 22.86-5.69 6.87-3.959 12.22-9.402 16.07-16.329 3.85-7.093 5.78-15.175 5.78-24.246 0-9.072-1.93-17.072-5.78-24-3.85-7.092-9.2-12.535-16.07-16.328-6.86-3.794-14.48-5.69-22.86-5.69-8.53 0-16.24 1.896-23.1 5.69-6.7 3.793-12.05 9.236-16.07 16.329-3.85 6.927-5.78 14.927-5.78 23.999 0 9.071 1.93 17.153 5.78 24.246 4.02 6.927 9.37 12.37 16.07 16.329 6.86 3.793 14.57 5.69 23.1 5.69Z"/><path fill="#25293D" fill-rule="evenodd" d="M709.921 64.183c-7.594-6.562-17.545-10.54-28.438-10.54-23.827 0-43.144 19.029-43.144 42.5v90.121h22.69v-90.12c0-11.128 9.158-20.148 20.454-20.148 4.626 0 8.893 1.513 12.32 4.064l16.118-15.877Z" clip-rule="evenodd"/><path fill="#D6001C" d="M1350 166.893c0 9.876-8.13 17.882-18.15 17.882-10.03 0-18.16-8.006-18.16-17.882 0-9.876 8.13-17.881 18.16-17.881 10.02 0 18.15 8.005 18.15 17.881Z"/>
</g>
<defs>
<clipPath id="a">
<path fill="#fff" d="M0 0h1350v187H0z"/>
</clipPath>
</defs>
</svg>
