<svg width="373" height="64" viewBox="0 0 373 64" fill="none" xmlns="http://www.w3.org/2000/svg">
<path fill-rule="evenodd" clip-rule="evenodd" d="M28.6297 13.139L12.4204 24.8908L12.4264 24.899C11.9417 25.3189 11.635 25.939 11.635 26.6307C11.635 27.8955 12.6603 28.9208 13.9251 28.9208C14.3568 28.9208 14.7605 28.8014 15.1051 28.5938L15.1089 28.5989L15.1904 28.5398C15.2429 28.505 15.2939 28.468 15.3432 28.429L31.3181 16.8472C31.7921 16.5036 32.4318 16.498 32.9117 16.8334L48.0117 27.3852C49.7866 28.6254 52.0948 28.8045 54.0396 27.8527L55.4283 27.1732C57.4705 26.1738 58.7653 24.0986 58.7653 21.8249V20.838C58.7653 18.9206 57.842 17.1206 56.2848 16.002L35.5644 1.11831C33.4845 -0.375655 30.6824 -0.372491 28.606 1.12616L17.5899 9.07691L3.97656 18.6213L6.60593 22.3716L20.2321 12.8182L20.2449 12.8092L20.2577 12.8L31.2865 4.84011C31.7657 4.49426 32.4123 4.49353 32.8923 4.83829L53.6127 19.722C53.972 19.9801 54.1851 20.3955 54.1851 20.838V21.8249C54.1851 22.3496 53.8863 22.8285 53.415 23.0591L52.0263 23.7387C51.5775 23.9583 51.0449 23.917 50.6353 23.6308L35.5353 13.079C33.4557 11.6258 30.6837 11.6499 28.6297 13.139Z" fill="#13F1CA"/>
<path fill-rule="evenodd" clip-rule="evenodd" d="M31.3947 47.0759L21.8494 40.1278C21.7888 40.0788 21.7257 40.0328 21.6603 39.9901L21.528 39.8938L21.5196 39.9053C21.191 39.723 20.8127 39.6191 20.4102 39.6191C19.1454 39.6191 18.1201 40.6445 18.1201 41.9093C18.1201 42.5685 18.3986 43.1626 18.8444 43.5804L18.8325 43.5969L28.6991 50.779C30.7879 52.2994 33.6188 52.2994 35.7075 50.779L45.5742 43.5969L45.5629 43.5814C46.0092 43.1635 46.2882 42.5689 46.2882 41.9093C46.2882 40.6445 45.2628 39.6191 43.998 39.6191C43.5951 39.6191 43.2164 39.7232 42.8875 39.906L42.8786 39.8938L42.7308 40.0014C42.6772 40.0371 42.6252 40.0749 42.5749 40.1149L33.012 47.0759C32.53 47.4268 31.8767 47.4268 31.3947 47.0759Z" fill="#3F6587"/>
<path d="M39.6455 18.7792L49.3911 25.5335C50.5099 26.309 51.9664 26.4002 53.1732 25.7706L54.5086 25.0739C55.7189 24.4424 56.4778 23.1904 56.4778 21.8253V20.8817C56.4778 19.7051 55.9128 18.6001 54.959 17.9113L50.2945 14.5425" stroke="#AEF000" stroke-width="4.58022"/>
<path d="M14.1102 14.3135L4.27145 21.2168C3.14211 22.0092 2.55357 23.3688 2.74868 24.7345L2.77418 24.913L3.2322 26.5161" stroke="#E79B3B" stroke-width="4.58022"/>
<path d="M2.77344 24.7329C2.77344 24.7329 2.77344 25.7635 3.23146 26.336C4.78873 28.2826 15.5981 35.8399 15.5981 35.8399" stroke="url(#paint0_linear_813_1814)" stroke-width="4.58022"/>
<path d="M26.5908 33.8938C27.489 35.0316 28.9823 36.2184 30.2025 37.0919C31.3894 37.9414 32.9686 37.88 34.1472 37.0191C36.5957 35.2305 40.872 32.0397 44.1102 29.2642" stroke="#00E0FA" stroke-width="4.58022"/>
<circle cx="43.9268" cy="29.4244" r="2.29011" fill="#00E0FA"/>
<path fill-rule="evenodd" clip-rule="evenodd" d="M36.2587 25.3037C33.9175 23.3027 30.4507 23.3622 28.1654 25.3891C26.6347 26.7468 24.5627 28.5091 22.3984 30.1305C20.2027 31.7753 18.0398 33.1774 16.3077 33.9102C15.071 34.4334 13.0215 34.4949 11.1885 34.362C9.00466 34.2037 6.68613 35.1237 5.36676 37.1467L4.76773 38.0652C3.3161 40.291 3.51513 43.2093 5.25552 45.2175L6.14891 46.2483C6.44536 46.5904 6.77985 46.8975 7.1459 47.1638L13.1047 51.4983L15.799 47.7944L9.84021 43.4599C9.75574 43.3984 9.67855 43.3275 9.61013 43.2486L8.71674 42.2178C8.31511 41.7543 8.26918 41.0809 8.60417 40.5672L9.20321 39.6487C9.49257 39.205 10.1039 38.8756 10.8574 38.9302C12.7327 39.0662 15.7601 39.1151 18.0923 38.1284C20.3513 37.1727 22.8738 35.4972 25.1445 33.7962C27.4464 32.0718 29.6214 30.2199 31.2046 28.8157C31.7984 28.2891 32.6986 28.286 33.2828 28.7854C34.1464 29.5235 35.177 30.3892 36.2916 31.2942L40.0409 28.4324C38.6412 27.3161 37.3262 26.2161 36.2587 25.3037ZM45.4203 32.3932L41.5801 35.3244C43.2888 36.5192 44.9988 37.5791 46.4307 38.1785L48.1992 33.9535C47.45 33.6399 46.4975 33.0962 45.4203 32.3932Z" fill="#00E0FA"/>
<path d="M12.6211 48.3213L30.0619 60.8664C31.3402 61.7859 33.0629 61.7859 34.3412 60.8664L51.782 48.3213" stroke="#3F6587" stroke-width="4.58022"/>
<path fill-rule="evenodd" clip-rule="evenodd" d="M41.6133 35.2991C42.9333 36.334 44.5249 37.3641 46.3317 38.1204C48.6628 39.0963 51.6863 39.0491 53.5612 38.9151C54.3116 38.8614 54.921 39.1899 55.21 39.633L55.8118 40.5559C56.1468 41.0695 56.1009 41.743 55.6993 42.2064L54.8124 43.2297C54.7424 43.3105 54.6632 43.3828 54.5763 43.4453L50.3817 46.4621L53.056 50.1805L57.2506 47.1637C57.6268 46.8931 57.9702 46.5796 58.2737 46.2294L59.1605 45.2061C60.9009 43.198 61.0999 40.2797 59.6483 38.0539L59.0464 37.131C57.7295 35.1118 55.4163 34.1905 53.2345 34.3465C51.4021 34.4775 49.3458 34.4168 48.1003 33.8955C47.1367 33.4921 46.2315 32.9723 45.4052 32.4048L41.6133 35.2991Z" fill="#13A6C7"/>
<path d="M77.778 41C77.518 41 77.31 40.9307 77.154 40.792C77.0154 40.636 76.92 40.4454 76.868 40.22L73.774 23.554C73.774 23.502 73.7654 23.4587 73.748 23.424C73.748 23.3894 73.748 23.3634 73.748 23.346C73.748 23.19 73.8 23.06 73.904 22.956C74.0254 22.852 74.1554 22.8 74.294 22.8H76.582C77.0154 22.8 77.258 22.9734 77.31 23.32L79.468 35.098L81.808 27.48C81.86 27.3414 81.9467 27.2027 82.068 27.064C82.2067 26.908 82.406 26.83 82.666 26.83H84.07C84.3474 26.83 84.5467 26.908 84.668 27.064C84.7894 27.2027 84.8674 27.3414 84.902 27.48L87.268 35.072L89.426 23.32C89.478 22.9734 89.7207 22.8 90.154 22.8H92.442C92.5807 22.8 92.702 22.852 92.806 22.956C92.91 23.06 92.962 23.19 92.962 23.346C92.962 23.3634 92.962 23.3894 92.962 23.424C92.962 23.4587 92.9534 23.502 92.936 23.554L89.842 40.22C89.8074 40.4454 89.712 40.636 89.556 40.792C89.4 40.9307 89.192 41 88.932 41H87.19C86.93 41 86.722 40.9307 86.566 40.792C86.4274 40.6534 86.332 40.506 86.28 40.35L83.368 31.666L80.456 40.35C80.3867 40.506 80.2827 40.6534 80.144 40.792C80.0054 40.9307 79.7974 41 79.52 41H77.778Z" fill="#3F6587"/>
<path d="M96.6386 41C96.4653 41 96.3179 40.9394 96.1966 40.818C96.0753 40.6967 96.0146 40.5494 96.0146 40.376V23.424C96.0146 23.2507 96.0753 23.1034 96.1966 22.982C96.3179 22.8607 96.4653 22.8 96.6386 22.8H99.0826C99.2733 22.8 99.4206 22.8607 99.5246 22.982C99.6459 23.1034 99.7066 23.2507 99.7066 23.424V40.376C99.7066 40.5494 99.6459 40.6967 99.5246 40.818C99.4206 40.9394 99.2733 41 99.0826 41H96.6386Z" fill="#3F6587"/>
<path d="M110.102 41.26C108.49 41.26 107.138 41.026 106.046 40.558C104.971 40.0727 104.148 39.4487 103.576 38.686C103.021 37.906 102.727 37.0914 102.692 36.242C102.692 36.086 102.744 35.956 102.848 35.852C102.952 35.748 103.082 35.696 103.238 35.696H105.552C105.777 35.696 105.942 35.748 106.046 35.852C106.167 35.9387 106.271 36.0514 106.358 36.19C106.462 36.5194 106.661 36.8487 106.956 37.178C107.251 37.49 107.649 37.75 108.152 37.958C108.672 38.166 109.322 38.27 110.102 38.27C111.35 38.27 112.277 38.062 112.884 37.646C113.508 37.23 113.82 36.6667 113.82 35.956C113.82 35.4534 113.655 35.0547 113.326 34.76C112.997 34.448 112.485 34.1707 111.792 33.928C111.116 33.668 110.215 33.3994 109.088 33.122C107.788 32.81 106.696 32.4374 105.812 32.004C104.945 31.5534 104.287 30.99 103.836 30.314C103.403 29.638 103.186 28.78 103.186 27.74C103.186 26.7347 103.455 25.842 103.992 25.062C104.547 24.282 105.327 23.6667 106.332 23.216C107.355 22.7654 108.568 22.54 109.972 22.54C111.099 22.54 112.095 22.696 112.962 23.008C113.829 23.3027 114.548 23.7014 115.12 24.204C115.692 24.6894 116.125 25.218 116.42 25.79C116.732 26.3447 116.897 26.8907 116.914 27.428C116.914 27.5667 116.862 27.6967 116.758 27.818C116.671 27.922 116.541 27.974 116.368 27.974H113.95C113.811 27.974 113.673 27.9394 113.534 27.87C113.395 27.8007 113.283 27.6707 113.196 27.48C113.092 26.9427 112.754 26.4834 112.182 26.102C111.61 25.7207 110.873 25.53 109.972 25.53C109.036 25.53 108.282 25.7034 107.71 26.05C107.138 26.3967 106.852 26.934 106.852 27.662C106.852 28.1474 106.991 28.5547 107.268 28.884C107.563 29.196 108.022 29.4734 108.646 29.716C109.287 29.9587 110.128 30.2187 111.168 30.496C112.641 30.8254 113.846 31.2067 114.782 31.64C115.718 32.0734 116.403 32.628 116.836 33.304C117.269 33.9627 117.486 34.8034 117.486 35.826C117.486 36.97 117.174 37.9494 116.55 38.764C115.943 39.5614 115.085 40.1767 113.976 40.61C112.867 41.0434 111.575 41.26 110.102 41.26Z" fill="#3F6587"/>
<path d="M121.09 41C120.916 41 120.769 40.9394 120.648 40.818C120.526 40.6967 120.466 40.5494 120.466 40.376V23.424C120.466 23.2507 120.526 23.1034 120.648 22.982C120.769 22.8607 120.916 22.8 121.09 22.8H123.508C123.681 22.8 123.828 22.8607 123.95 22.982C124.071 23.1034 124.132 23.2507 124.132 23.424V37.906H132.374C132.564 37.906 132.72 37.9667 132.842 38.088C132.963 38.2094 133.024 38.3654 133.024 38.556V40.376C133.024 40.5494 132.963 40.6967 132.842 40.818C132.72 40.9394 132.564 41 132.374 41H121.09Z" fill="#3F6587"/>
<path d="M134.43 41C134.291 41 134.161 40.948 134.04 40.844C133.936 40.74 133.884 40.61 133.884 40.454C133.884 40.3847 133.901 40.3067 133.936 40.22L140.202 23.45C140.254 23.2767 140.349 23.1294 140.488 23.008C140.644 22.8694 140.852 22.8 141.112 22.8H143.946C144.206 22.8 144.405 22.8694 144.544 23.008C144.682 23.1294 144.786 23.2767 144.856 23.45L151.122 40.22C151.139 40.3067 151.148 40.3847 151.148 40.454C151.148 40.61 151.096 40.74 150.992 40.844C150.888 40.948 150.766 41 150.628 41H148.366C148.123 41 147.941 40.948 147.82 40.844C147.716 40.7227 147.646 40.61 147.612 40.506L146.39 37.334H138.668L137.446 40.506C137.411 40.61 137.333 40.7227 137.212 40.844C137.108 40.948 136.934 41 136.692 41H134.43ZM139.578 34.344H145.48L142.516 26.31L139.578 34.344Z" fill="#3F6587"/>
<path d="M160.24 41.26C158.628 41.26 157.258 40.9827 156.132 40.428C155.022 39.856 154.173 39.05 153.584 38.01C152.994 36.9527 152.665 35.6874 152.596 34.214C152.578 33.5034 152.57 32.7407 152.57 31.926C152.57 31.1114 152.578 30.3314 152.596 29.586C152.665 28.13 152.994 26.8734 153.584 25.816C154.19 24.7587 155.048 23.9527 156.158 23.398C157.284 22.826 158.645 22.54 160.24 22.54C161.418 22.54 162.476 22.696 163.412 23.008C164.348 23.32 165.145 23.7534 165.804 24.308C166.462 24.8454 166.974 25.478 167.338 26.206C167.702 26.934 167.892 27.7227 167.91 28.572C167.927 28.728 167.875 28.858 167.754 28.962C167.65 29.066 167.52 29.118 167.364 29.118H164.894C164.703 29.118 164.547 29.0747 164.426 28.988C164.304 28.884 164.218 28.7194 164.166 28.494C163.888 27.35 163.412 26.57 162.736 26.154C162.06 25.738 161.219 25.53 160.214 25.53C159.052 25.53 158.125 25.8594 157.432 26.518C156.738 27.1594 156.366 28.2254 156.314 29.716C156.262 31.1374 156.262 32.5934 156.314 34.084C156.366 35.5747 156.738 36.6494 157.432 37.308C158.125 37.9494 159.052 38.27 160.214 38.27C161.219 38.27 162.06 38.062 162.736 37.646C163.412 37.2127 163.888 36.4327 164.166 35.306C164.218 35.0634 164.304 34.8987 164.426 34.812C164.547 34.7254 164.703 34.682 164.894 34.682H167.364C167.52 34.682 167.65 34.734 167.754 34.838C167.875 34.942 167.927 35.072 167.91 35.228C167.892 36.0774 167.702 36.866 167.338 37.594C166.974 38.322 166.462 38.9634 165.804 39.518C165.145 40.0554 164.348 40.48 163.412 40.792C162.476 41.104 161.418 41.26 160.24 41.26Z" fill="#3F6587"/>
<path d="M177.987 41.26C176.444 41.26 175.118 41.0087 174.009 40.506C172.9 39.986 172.033 39.1974 171.409 38.14C170.785 37.0654 170.447 35.7307 170.395 34.136C170.378 33.3907 170.369 32.654 170.369 31.926C170.369 31.198 170.378 30.4527 170.395 29.69C170.447 28.1127 170.794 26.7954 171.435 25.738C172.076 24.6807 172.952 23.8834 174.061 23.346C175.188 22.8087 176.496 22.54 177.987 22.54C179.478 22.54 180.786 22.8087 181.913 23.346C183.04 23.8834 183.924 24.6807 184.565 25.738C185.206 26.7954 185.553 28.1127 185.605 29.69C185.64 30.4527 185.657 31.198 185.657 31.926C185.657 32.654 185.64 33.3907 185.605 34.136C185.553 35.7307 185.215 37.0654 184.591 38.14C183.967 39.1974 183.092 39.986 181.965 40.506C180.856 41.0087 179.53 41.26 177.987 41.26ZM177.987 38.27C179.114 38.27 180.032 37.9407 180.743 37.282C181.454 36.606 181.835 35.514 181.887 34.006C181.922 33.2434 181.939 32.5414 181.939 31.9C181.939 31.2414 181.922 30.5394 181.887 29.794C181.852 28.7887 181.662 27.974 181.315 27.35C180.986 26.7087 180.535 26.2494 179.963 25.972C179.391 25.6774 178.732 25.53 177.987 25.53C177.259 25.53 176.609 25.6774 176.037 25.972C175.465 26.2494 175.006 26.7087 174.659 27.35C174.33 27.974 174.148 28.7887 174.113 29.794C174.096 30.5394 174.087 31.2414 174.087 31.9C174.087 32.5414 174.096 33.2434 174.113 34.006C174.165 35.514 174.546 36.606 175.257 37.282C175.968 37.9407 176.878 38.27 177.987 38.27Z" fill="#3F6587"/>
<path d="M189.695 41C189.522 41 189.375 40.9394 189.253 40.818C189.132 40.6967 189.071 40.5494 189.071 40.376V23.45C189.071 23.2594 189.132 23.1034 189.253 22.982C189.375 22.8607 189.522 22.8 189.695 22.8H196.039C197.79 22.8 199.229 23.0687 200.355 23.606C201.499 24.1434 202.357 24.9407 202.929 25.998C203.519 27.0554 203.822 28.3467 203.839 29.872C203.874 30.6347 203.891 31.3107 203.891 31.9C203.891 32.4894 203.874 33.1567 203.839 33.902C203.805 35.514 203.51 36.8487 202.955 37.906C202.401 38.946 201.56 39.726 200.433 40.246C199.324 40.7487 197.903 41 196.169 41H189.695ZM192.685 38.01H196.039C197.01 38.01 197.799 37.8714 198.405 37.594C199.012 37.3167 199.454 36.8747 199.731 36.268C200.026 35.644 200.182 34.8294 200.199 33.824C200.217 33.304 200.225 32.8534 200.225 32.472C200.243 32.0734 200.243 31.6834 200.225 31.302C200.225 30.9034 200.217 30.4527 200.199 29.95C200.165 28.5287 199.809 27.48 199.133 26.804C198.457 26.128 197.383 25.79 195.909 25.79H192.685V38.01Z" fill="#3F6587"/>
<path d="M207.977 41C207.803 41 207.656 40.9394 207.535 40.818C207.413 40.6967 207.352 40.5494 207.352 40.376V23.45C207.352 23.2594 207.413 23.1034 207.535 22.982C207.656 22.8607 207.803 22.8 207.977 22.8H219.417C219.607 22.8 219.763 22.8607 219.885 22.982C220.006 23.1034 220.066 23.2594 220.066 23.45V25.166C220.066 25.3394 220.006 25.4867 219.885 25.608C219.763 25.7294 219.607 25.79 219.417 25.79H210.863V30.392H218.844C219.035 30.392 219.191 30.4527 219.312 30.574C219.434 30.678 219.495 30.8254 219.495 31.016V32.628C219.495 32.8187 219.434 32.9747 219.312 33.096C219.191 33.2 219.035 33.252 218.844 33.252H210.863V38.01H219.624C219.815 38.01 219.971 38.0707 220.092 38.192C220.214 38.3134 220.275 38.4694 220.275 38.66V40.376C220.275 40.5494 220.214 40.6967 220.092 40.818C219.971 40.9394 219.815 41 219.624 41H207.977Z" fill="#3F6587"/>
<path d="M235.786 41.26C234.174 41.26 232.822 41.026 231.73 40.558C230.655 40.0727 229.832 39.4487 229.26 38.686C228.705 37.906 228.41 37.0914 228.376 36.242C228.376 36.086 228.428 35.956 228.532 35.852C228.636 35.748 228.766 35.696 228.922 35.696H231.236C231.461 35.696 231.626 35.748 231.73 35.852C231.851 35.9387 231.955 36.0514 232.042 36.19C232.146 36.5194 232.345 36.8487 232.64 37.178C232.934 37.49 233.333 37.75 233.836 37.958C234.356 38.166 235.006 38.27 235.786 38.27C237.034 38.27 237.961 38.062 238.568 37.646C239.192 37.23 239.504 36.6667 239.504 35.956C239.504 35.4534 239.339 35.0547 239.01 34.76C238.68 34.448 238.169 34.1707 237.476 33.928C236.8 33.668 235.898 33.3994 234.772 33.122C233.472 32.81 232.38 32.4374 231.496 32.004C230.629 31.5534 229.97 30.99 229.52 30.314C229.086 29.638 228.87 28.78 228.87 27.74C228.87 26.7347 229.138 25.842 229.676 25.062C230.23 24.282 231.01 23.6667 232.016 23.216C233.038 22.7654 234.252 22.54 235.656 22.54C236.782 22.54 237.779 22.696 238.646 23.008C239.512 23.3027 240.232 23.7014 240.804 24.204C241.376 24.6894 241.809 25.218 242.104 25.79C242.416 26.3447 242.58 26.8907 242.598 27.428C242.598 27.5667 242.546 27.6967 242.442 27.818C242.355 27.922 242.225 27.974 242.052 27.974H239.634C239.495 27.974 239.356 27.9394 239.218 27.87C239.079 27.8007 238.966 27.6707 238.88 27.48C238.776 26.9427 238.438 26.4834 237.866 26.102C237.294 25.7207 236.557 25.53 235.656 25.53C234.72 25.53 233.966 25.7034 233.394 26.05C232.822 26.3967 232.536 26.934 232.536 27.662C232.536 28.1474 232.674 28.5547 232.952 28.884C233.246 29.196 233.706 29.4734 234.33 29.716C234.971 29.9587 235.812 30.2187 236.852 30.496C238.325 30.8254 239.53 31.2067 240.466 31.64C241.402 32.0734 242.086 32.628 242.52 33.304C242.953 33.9627 243.17 34.8034 243.17 35.826C243.17 36.97 242.858 37.9494 242.234 38.764C241.627 39.5614 240.769 40.1767 239.66 40.61C238.55 41.0434 237.259 41.26 235.786 41.26Z" fill="#3F6587"/>
<path d="M253.143 41.26C251.601 41.26 250.275 41.0087 249.165 40.506C248.056 39.986 247.189 39.1974 246.565 38.14C245.941 37.0654 245.603 35.7307 245.551 34.136C245.534 33.3907 245.525 32.654 245.525 31.926C245.525 31.198 245.534 30.4527 245.551 29.69C245.603 28.1127 245.95 26.7954 246.591 25.738C247.233 24.6807 248.108 23.8834 249.217 23.346C250.344 22.8087 251.653 22.54 253.143 22.54C254.634 22.54 255.943 22.8087 257.069 23.346C258.196 23.8834 259.08 24.6807 259.721 25.738C260.363 26.7954 260.709 28.1127 260.761 29.69C260.796 30.4527 260.813 31.198 260.813 31.926C260.813 32.654 260.796 33.3907 260.761 34.136C260.709 35.7307 260.371 37.0654 259.747 38.14C259.123 39.1974 258.248 39.986 257.121 40.506C256.012 41.0087 254.686 41.26 253.143 41.26ZM253.143 38.27C254.27 38.27 255.189 37.9407 255.899 37.282C256.61 36.606 256.991 35.514 257.043 34.006C257.078 33.2434 257.095 32.5414 257.095 31.9C257.095 31.2414 257.078 30.5394 257.043 29.794C257.009 28.7887 256.818 27.974 256.471 27.35C256.142 26.7087 255.691 26.2494 255.119 25.972C254.547 25.6774 253.889 25.53 253.143 25.53C252.415 25.53 251.765 25.6774 251.193 25.972C250.621 26.2494 250.162 26.7087 249.815 27.35C249.486 27.974 249.304 28.7887 249.269 29.794C249.252 30.5394 249.243 31.2414 249.243 31.9C249.243 32.5414 249.252 33.2434 249.269 34.006C249.321 35.514 249.703 36.606 250.413 37.282C251.124 37.9407 252.034 38.27 253.143 38.27Z" fill="#3F6587"/>
<path d="M264.852 41C264.678 41 264.531 40.9394 264.41 40.818C264.288 40.6967 264.227 40.5494 264.227 40.376V23.424C264.227 23.2507 264.288 23.1034 264.41 22.982C264.531 22.8607 264.678 22.8 264.852 22.8H267.27C267.443 22.8 267.59 22.8607 267.712 22.982C267.833 23.1034 267.893 23.2507 267.893 23.424V37.906H276.135C276.326 37.906 276.482 37.9667 276.604 38.088C276.725 38.2094 276.786 38.3654 276.786 38.556V40.376C276.786 40.5494 276.725 40.6967 276.604 40.818C276.482 40.9394 276.326 41 276.135 41H264.852Z" fill="#3F6587"/>
<path d="M286.183 41.26C284.675 41.26 283.366 41.0087 282.257 40.506C281.147 39.986 280.289 39.1974 279.683 38.14C279.076 37.0654 278.773 35.696 278.773 34.032V23.45C278.773 23.2594 278.833 23.1034 278.955 22.982C279.076 22.8607 279.223 22.8 279.397 22.8H281.763C281.953 22.8 282.101 22.8607 282.205 22.982C282.326 23.1034 282.387 23.2594 282.387 23.45V34.032C282.387 35.4534 282.725 36.5107 283.401 37.204C284.077 37.88 285.004 38.218 286.183 38.218C287.361 38.218 288.28 37.88 288.939 37.204C289.615 36.5107 289.953 35.4534 289.953 34.032V23.45C289.953 23.2594 290.013 23.1034 290.135 22.982C290.256 22.8607 290.412 22.8 290.603 22.8H292.943C293.133 22.8 293.281 22.8607 293.385 22.982C293.506 23.1034 293.567 23.2594 293.567 23.45V34.032C293.567 35.696 293.263 37.0654 292.657 38.14C292.067 39.1974 291.218 39.986 290.109 40.506C289.017 41.0087 287.708 41.26 286.183 41.26Z" fill="#3F6587"/>
<path d="M302.092 41C301.918 41 301.771 40.9394 301.65 40.818C301.528 40.6967 301.468 40.5494 301.468 40.376V25.998H296.658C296.484 25.998 296.337 25.9374 296.216 25.816C296.094 25.6947 296.034 25.5474 296.034 25.374V23.45C296.034 23.2594 296.094 23.1034 296.216 22.982C296.337 22.8607 296.484 22.8 296.658 22.8H309.918C310.109 22.8 310.264 22.8607 310.386 22.982C310.507 23.1034 310.568 23.2594 310.568 23.45V25.374C310.568 25.5474 310.507 25.6947 310.386 25.816C310.264 25.9374 310.109 25.998 309.918 25.998H305.134V40.376C305.134 40.5494 305.073 40.6967 304.952 40.818C304.83 40.9394 304.674 41 304.484 41H302.092Z" fill="#3F6587"/>
<path d="M313.83 41C313.657 41 313.509 40.9394 313.388 40.818C313.267 40.6967 313.206 40.5494 313.206 40.376V23.424C313.206 23.2507 313.267 23.1034 313.388 22.982C313.509 22.8607 313.657 22.8 313.83 22.8H316.274C316.465 22.8 316.612 22.8607 316.716 22.982C316.837 23.1034 316.898 23.2507 316.898 23.424V40.376C316.898 40.5494 316.837 40.6967 316.716 40.818C316.612 40.9394 316.465 41 316.274 41H313.83Z" fill="#3F6587"/>
<path d="M327.97 41.26C326.427 41.26 325.101 41.0087 323.992 40.506C322.882 39.986 322.016 39.1974 321.392 38.14C320.768 37.0654 320.43 35.7307 320.378 34.136C320.36 33.3907 320.352 32.654 320.352 31.926C320.352 31.198 320.36 30.4527 320.378 29.69C320.43 28.1127 320.776 26.7954 321.418 25.738C322.059 24.6807 322.934 23.8834 324.044 23.346C325.17 22.8087 326.479 22.54 327.97 22.54C329.46 22.54 330.769 22.8087 331.896 23.346C333.022 23.8834 333.906 24.6807 334.548 25.738C335.189 26.7954 335.536 28.1127 335.588 29.69C335.622 30.4527 335.64 31.198 335.64 31.926C335.64 32.654 335.622 33.3907 335.588 34.136C335.536 35.7307 335.198 37.0654 334.574 38.14C333.95 39.1974 333.074 39.986 331.948 40.506C330.838 41.0087 329.512 41.26 327.97 41.26ZM327.97 38.27C329.096 38.27 330.015 37.9407 330.726 37.282C331.436 36.606 331.818 35.514 331.87 34.006C331.904 33.2434 331.922 32.5414 331.922 31.9C331.922 31.2414 331.904 30.5394 331.87 29.794C331.835 28.7887 331.644 27.974 331.298 27.35C330.968 26.7087 330.518 26.2494 329.946 25.972C329.374 25.6774 328.715 25.53 327.97 25.53C327.242 25.53 326.592 25.6774 326.02 25.972C325.448 26.2494 324.988 26.7087 324.642 27.35C324.312 27.974 324.13 28.7887 324.096 29.794C324.078 30.5394 324.07 31.2414 324.07 31.9C324.07 32.5414 324.078 33.2434 324.096 34.006C324.148 35.514 324.529 36.606 325.24 37.282C325.95 37.9407 326.86 38.27 327.97 38.27Z" fill="#3F6587"/>
<path d="M339.678 41C339.504 41 339.357 40.9394 339.236 40.818C339.114 40.6967 339.054 40.5494 339.054 40.376V23.45C339.054 23.2594 339.114 23.1034 339.236 22.982C339.357 22.8607 339.504 22.8 339.678 22.8H341.68C341.922 22.8 342.096 22.8607 342.2 22.982C342.321 23.086 342.399 23.164 342.434 23.216L349.922 34.864V23.45C349.922 23.2594 349.974 23.1034 350.078 22.982C350.199 22.8607 350.355 22.8 350.546 22.8H352.73C352.92 22.8 353.076 22.8607 353.198 22.982C353.319 23.1034 353.38 23.2594 353.38 23.45V40.35C353.38 40.5407 353.319 40.6967 353.198 40.818C353.076 40.9394 352.929 41 352.756 41H350.728C350.485 41 350.312 40.9394 350.208 40.818C350.104 40.6967 350.026 40.6187 349.974 40.584L342.512 29.196V40.376C342.512 40.5494 342.451 40.6967 342.33 40.818C342.208 40.9394 342.052 41 341.862 41H339.678Z" fill="#3F6587"/>
<path d="M363.754 41.26C362.142 41.26 360.79 41.026 359.698 40.558C358.624 40.0727 357.8 39.4487 357.228 38.686C356.674 37.906 356.379 37.0914 356.344 36.242C356.344 36.086 356.396 35.956 356.5 35.852C356.604 35.748 356.734 35.696 356.89 35.696H359.204C359.43 35.696 359.594 35.748 359.698 35.852C359.82 35.9387 359.924 36.0514 360.01 36.19C360.115 36.5194 360.314 36.8487 360.608 37.178C360.903 37.49 361.302 37.75 361.804 37.958C362.324 38.166 362.974 38.27 363.754 38.27C365.002 38.27 365.93 38.062 366.536 37.646C367.16 37.23 367.472 36.6667 367.472 35.956C367.472 35.4534 367.308 35.0547 366.978 34.76C366.649 34.448 366.138 34.1707 365.444 33.928C364.768 33.668 363.867 33.3994 362.74 33.122C361.44 32.81 360.348 32.4374 359.464 32.004C358.598 31.5534 357.939 30.99 357.488 30.314C357.055 29.638 356.838 28.78 356.838 27.74C356.838 26.7347 357.107 25.842 357.644 25.062C358.199 24.282 358.979 23.6667 359.984 23.216C361.007 22.7654 362.22 22.54 363.624 22.54C364.751 22.54 365.748 22.696 366.614 23.008C367.481 23.3027 368.201 23.7014 368.772 24.204C369.344 24.6894 369.778 25.218 370.072 25.79C370.384 26.3447 370.549 26.8907 370.566 27.428C370.566 27.5667 370.514 27.6967 370.41 27.818C370.324 27.922 370.194 27.974 370.02 27.974H367.602C367.464 27.974 367.325 27.9394 367.186 27.87C367.048 27.8007 366.935 27.6707 366.848 27.48C366.744 26.9427 366.406 26.4834 365.834 26.102C365.262 25.7207 364.526 25.53 363.624 25.53C362.688 25.53 361.934 25.7034 361.362 26.05C360.79 26.3967 360.504 26.934 360.504 27.662C360.504 28.1474 360.643 28.5547 360.92 28.884C361.215 29.196 361.674 29.4734 362.298 29.716C362.94 29.9587 363.78 30.2187 364.82 30.496C366.294 30.8254 367.498 31.2067 368.434 31.64C369.37 32.0734 370.055 32.628 370.488 33.304C370.922 33.9627 371.138 34.8034 371.138 35.826C371.138 36.97 370.826 37.9494 370.202 38.764C369.596 39.5614 368.738 40.1767 367.628 40.61C366.519 41.0434 365.228 41.26 363.754 41.26Z" fill="#3F6587"/>
<defs>
<linearGradient id="paint0_linear_813_1814" x1="-1.23426" y1="23.4733" x2="0.47262" y2="38.8363" gradientUnits="userSpaceOnUse">
<stop stop-color="#E79B3B"/>
<stop offset="1" stop-color="white"/>
</linearGradient>
</defs>
</svg>

