<svg width="281" height="40" viewBox="0 0 281 40" fill="none" xmlns="http://www.w3.org/2000/svg">
<path fill-rule="evenodd" clip-rule="evenodd" d="M17.8906 8.21191L7.75984 15.5567L7.76479 15.5635C7.46266 15.826 7.27162 16.213 7.27162 16.6446C7.27162 17.4351 7.91244 18.0759 8.70294 18.0759C8.97202 18.0759 9.22376 18.0016 9.43879 17.8725L9.44012 17.8743L9.46421 17.8569C9.51747 17.8234 9.56836 17.7864 9.61659 17.7464L19.5709 10.5295C19.8671 10.3147 20.267 10.3113 20.5669 10.5209L30.0044 17.1158C31.1137 17.8909 32.5563 18.0028 33.7718 17.408L34.6397 16.9832C35.9161 16.3586 36.7254 15.0616 36.7254 13.6406V13.0237C36.7254 11.8254 36.1483 10.7004 35.1751 10.0012L22.2248 0.698943C20.9249 -0.234783 19.1736 -0.232809 17.8758 0.70385L10.9907 5.67312L2.48242 11.6383L4.12578 13.9823L12.6421 8.01139L12.6502 8.00577L12.6581 8.00003L19.5511 3.02506C19.8506 2.80891 20.2548 2.80846 20.5547 3.02393L33.505 12.3262C33.7296 12.4876 33.8628 12.7472 33.8628 13.0237V13.6406C33.8628 13.9685 33.676 14.2678 33.3815 14.412L32.5135 14.8367C32.233 14.974 31.9001 14.9481 31.6441 14.7693L22.2066 8.17437C20.9069 7.26612 19.1744 7.28119 17.8906 8.21191Z" fill="#13F1CA"/>
<path fill-rule="evenodd" clip-rule="evenodd" d="M19.6207 29.4224L13.6521 25.0777C13.6161 25.0488 13.5787 25.0215 13.54 24.9961L13.454 24.9335L13.4486 24.9409C13.2433 24.827 13.007 24.7622 12.7555 24.7622C11.965 24.7622 11.3242 25.403 11.3242 26.1935C11.3242 26.6054 11.4982 26.9767 11.7767 27.2378L11.7693 27.2479L17.936 31.7368C19.2414 32.6871 21.0107 32.6871 22.3162 31.7368L28.4829 27.2479L28.4762 27.2388C28.7553 26.9776 28.9297 26.6059 28.9297 26.1935C28.9297 25.403 28.2889 24.7622 27.4984 24.7622C27.2464 24.7622 27.0097 24.8273 26.804 24.9416L26.7982 24.9335L26.692 25.0108C26.6683 25.027 26.6452 25.0438 26.6226 25.0614L20.6315 29.4224C20.3302 29.6417 19.9219 29.6417 19.6207 29.4224Z" fill="#3F6587"/>
<path d="M24.7793 11.7368L30.8703 15.9583C31.5695 16.4429 32.4798 16.5 33.2341 16.1064L34.0687 15.671C34.8252 15.2763 35.2995 14.4938 35.2995 13.6406V13.0509C35.2995 12.3155 34.9464 11.6249 34.3502 11.1944L31.4349 9.08887" stroke="#AEF000" stroke-width="2.86264"/>
<path d="M8.81731 8.9458L2.66807 13.2604C1.96223 13.7556 1.5944 14.6054 1.71634 15.459L1.73228 15.5705L2.01854 16.5724" stroke="#E79B3B" stroke-width="2.86264"/>
<path d="M1.73242 15.458C1.73242 15.458 1.73242 16.1021 2.01869 16.4599C2.99198 17.6766 9.74781 22.3999 9.74781 22.3999" stroke="url(#paint0_linear_831_1863)" stroke-width="2.86264"/>
<path d="M16.6191 21.1836C17.1805 21.8947 18.1138 22.6365 18.8764 23.1824C19.6182 23.7133 20.6053 23.675 21.3419 23.1369C22.8722 22.019 25.5449 20.0248 27.5687 18.29" stroke="#00E0FA" stroke-width="2.86264"/>
<circle cx="27.4548" cy="18.3903" r="1.43132" fill="#00E0FA"/>
<path fill-rule="evenodd" clip-rule="evenodd" d="M22.6612 15.8146C21.198 14.564 19.0312 14.6012 17.6029 15.868C16.6462 16.7165 15.3512 17.818 13.9985 18.8314C12.6262 19.8594 11.2744 20.7357 10.1918 21.1937C9.41886 21.5207 8.13797 21.5591 6.99231 21.4761C5.62743 21.3771 4.17834 21.9521 3.35374 23.2165L2.97934 23.7906C2.07208 25.1817 2.19647 27.0057 3.28421 28.2607L3.84258 28.905C4.02786 29.1188 4.23692 29.3108 4.4657 29.4772L8.18996 32.1863L9.8739 29.8713L6.14964 27.1622C6.09685 27.1238 6.0486 27.0795 6.00585 27.0302L5.44747 26.3859C5.19646 26.0963 5.16775 25.6754 5.37712 25.3543L5.75152 24.7803C5.93237 24.503 6.31447 24.2971 6.78536 24.3312C7.95748 24.4162 9.8496 24.4468 11.3072 23.8301C12.719 23.2328 14.2957 22.1856 15.7148 21.1224C17.1535 20.0447 18.5129 18.8873 19.5024 18.0097C19.8735 17.6805 20.4361 17.6786 20.8013 17.9907C21.3413 18.4522 21.9858 18.9936 22.6828 19.5595L25.0261 17.7709C24.1509 17.0729 23.3287 16.3851 22.6612 15.8146ZM28.3884 20.2463L25.9882 22.0783C27.0558 22.8248 28.1241 23.4869 29.0187 23.8614L30.124 21.2208C29.656 21.0249 29.0611 20.6853 28.3884 20.2463Z" fill="#00E0FA"/>
<path d="M7.88867 30.2007L18.7892 38.0414C19.5881 38.6161 20.6648 38.6161 21.4637 38.0414L32.3642 30.2007" stroke="#3F6587" stroke-width="2.86264"/>
<path fill-rule="evenodd" clip-rule="evenodd" d="M26.0098 22.0619C26.8347 22.7087 27.8294 23.3524 28.9586 23.8251C30.4156 24.435 32.3052 24.4055 33.477 24.3217C33.946 24.2882 34.3269 24.4935 34.5075 24.7705L34.8837 25.3472C35.093 25.6683 35.0643 26.0892 34.8133 26.3788L34.2591 27.0184C34.2153 27.0689 34.1658 27.1141 34.1115 27.1531L31.4898 29.0386L33.1613 31.3626L35.7829 29.4771C36.0181 29.308 36.2326 29.112 36.4223 28.8932L36.9766 28.2536C38.0643 26.9986 38.1887 25.1746 37.2815 23.7835L36.9053 23.2067C36.0822 21.9447 34.6365 21.3688 33.2728 21.4664C32.1276 21.5483 30.8424 21.5103 30.064 21.1845C29.4618 20.9324 28.8961 20.6076 28.3797 20.2529L26.0098 22.0619Z" fill="#13A6C7"/>
<path d="M53.8346 27C53.6346 27 53.4746 26.9467 53.3546 26.84C53.2479 26.72 53.1746 26.5733 53.1346 26.4L50.7546 13.58C50.7546 13.54 50.7479 13.5067 50.7346 13.48C50.7346 13.4533 50.7346 13.4333 50.7346 13.42C50.7346 13.3 50.7746 13.2 50.8546 13.12C50.9479 13.04 51.0479 13 51.1546 13H52.9146C53.2479 13 53.4346 13.1333 53.4746 13.4L55.1346 22.46L56.9346 16.6C56.9746 16.4933 57.0413 16.3867 57.1346 16.28C57.2413 16.16 57.3946 16.1 57.5946 16.1H58.6746C58.8879 16.1 59.0413 16.16 59.1346 16.28C59.2279 16.3867 59.2879 16.4933 59.3146 16.6L61.1346 22.44L62.7946 13.4C62.8346 13.1333 63.0213 13 63.3546 13H65.1146C65.2213 13 65.3146 13.04 65.3946 13.12C65.4746 13.2 65.5146 13.3 65.5146 13.42C65.5146 13.4333 65.5146 13.4533 65.5146 13.48C65.5146 13.5067 65.5079 13.54 65.4946 13.58L63.1146 26.4C63.0879 26.5733 63.0146 26.72 62.8946 26.84C62.7746 26.9467 62.6146 27 62.4146 27H61.0746C60.8746 27 60.7146 26.9467 60.5946 26.84C60.4879 26.7333 60.4146 26.62 60.3746 26.5L58.1346 19.82L55.8946 26.5C55.8413 26.62 55.7613 26.7333 55.6546 26.84C55.5479 26.9467 55.3879 27 55.1746 27H53.8346ZM68.3427 27C68.2094 27 68.0961 26.9533 68.0027 26.86C67.9094 26.7667 67.8627 26.6533 67.8627 26.52V13.48C67.8627 13.3467 67.9094 13.2333 68.0027 13.14C68.0961 13.0467 68.2094 13 68.3427 13H70.2227C70.3694 13 70.4827 13.0467 70.5627 13.14C70.6561 13.2333 70.7027 13.3467 70.7027 13.48V26.52C70.7027 26.6533 70.6561 26.7667 70.5627 26.86C70.4827 26.9533 70.3694 27 70.2227 27H68.3427ZM78.6993 27.2C77.4593 27.2 76.4193 27.02 75.5793 26.66C74.7526 26.2867 74.1193 25.8067 73.6793 25.22C73.2526 24.62 73.026 23.9933 72.9993 23.34C72.9993 23.22 73.0393 23.12 73.1193 23.04C73.1993 22.96 73.2993 22.92 73.4193 22.92H75.1993C75.3726 22.92 75.4993 22.96 75.5793 23.04C75.6726 23.1067 75.7526 23.1933 75.8193 23.3C75.8993 23.5533 76.0526 23.8067 76.2793 24.06C76.506 24.3 76.8126 24.5 77.1993 24.66C77.5993 24.82 78.0993 24.9 78.6993 24.9C79.6593 24.9 80.3726 24.74 80.8393 24.42C81.3193 24.1 81.5593 23.6667 81.5593 23.12C81.5593 22.7333 81.4326 22.4267 81.1793 22.2C80.926 21.96 80.5326 21.7467 79.9993 21.56C79.4793 21.36 78.786 21.1533 77.9193 20.94C76.9193 20.7 76.0793 20.4133 75.3993 20.08C74.7326 19.7333 74.226 19.3 73.8793 18.78C73.546 18.26 73.3793 17.6 73.3793 16.8C73.3793 16.0267 73.586 15.34 73.9993 14.74C74.426 14.14 75.026 13.6667 75.7993 13.32C76.586 12.9733 77.5193 12.8 78.5993 12.8C79.466 12.8 80.2326 12.92 80.8993 13.16C81.566 13.3867 82.1193 13.6933 82.5593 14.08C82.9993 14.4533 83.3326 14.86 83.5593 15.3C83.7993 15.7267 83.926 16.1467 83.9393 16.56C83.9393 16.6667 83.8993 16.7667 83.8193 16.86C83.7526 16.94 83.6526 16.98 83.5193 16.98H81.6593C81.5526 16.98 81.446 16.9533 81.3393 16.9C81.2326 16.8467 81.146 16.7467 81.0793 16.6C80.9993 16.1867 80.7393 15.8333 80.2993 15.54C79.8593 15.2467 79.2926 15.1 78.5993 15.1C77.8793 15.1 77.2993 15.2333 76.8593 15.5C76.4193 15.7667 76.1993 16.18 76.1993 16.74C76.1993 17.1133 76.306 17.4267 76.5193 17.68C76.746 17.92 77.0993 18.1333 77.5793 18.32C78.0726 18.5067 78.7193 18.7067 79.5193 18.92C80.6526 19.1733 81.5793 19.4667 82.2993 19.8C83.0193 20.1333 83.546 20.56 83.8793 21.08C84.2126 21.5867 84.3793 22.2333 84.3793 23.02C84.3793 23.9 84.1393 24.6533 83.6593 25.28C83.1926 25.8933 82.5326 26.3667 81.6793 26.7C80.826 27.0333 79.8326 27.2 78.6993 27.2ZM87.1513 27C87.018 27 86.9047 26.9533 86.8113 26.86C86.718 26.7667 86.6713 26.6533 86.6713 26.52V13.48C86.6713 13.3467 86.718 13.2333 86.8113 13.14C86.9047 13.0467 87.018 13 87.1513 13H89.0113C89.1447 13 89.258 13.0467 89.3513 13.14C89.4447 13.2333 89.4913 13.3467 89.4913 13.48V24.62H95.8313C95.978 24.62 96.098 24.6667 96.1913 24.76C96.2847 24.8533 96.3313 24.9733 96.3313 25.12V26.52C96.3313 26.6533 96.2847 26.7667 96.1913 26.86C96.098 26.9533 95.978 27 95.8313 27H87.1513ZM97.4129 27C97.3062 27 97.2062 26.96 97.1129 26.88C97.0329 26.8 96.9929 26.7 96.9929 26.58C96.9929 26.5267 97.0062 26.4667 97.0329 26.4L101.853 13.5C101.893 13.3667 101.966 13.2533 102.073 13.16C102.193 13.0533 102.353 13 102.553 13H104.733C104.933 13 105.086 13.0533 105.193 13.16C105.3 13.2533 105.38 13.3667 105.433 13.5L110.253 26.4C110.266 26.4667 110.273 26.5267 110.273 26.58C110.273 26.7 110.233 26.8 110.153 26.88C110.073 26.96 109.98 27 109.873 27H108.133C107.946 27 107.806 26.96 107.713 26.88C107.633 26.7867 107.58 26.7 107.553 26.62L106.613 24.18H100.673L99.7329 26.62C99.7062 26.7 99.6462 26.7867 99.5529 26.88C99.4729 26.96 99.3396 27 99.1529 27H97.4129ZM101.373 21.88H105.913L103.633 15.7L101.373 21.88ZM117.267 27.2C116.027 27.2 114.973 26.9867 114.107 26.56C113.253 26.12 112.6 25.5 112.147 24.7C111.693 23.8867 111.44 22.9133 111.387 21.78C111.373 21.2333 111.367 20.6467 111.367 20.02C111.367 19.3933 111.373 18.7933 111.387 18.22C111.44 17.1 111.693 16.1333 112.147 15.32C112.613 14.5067 113.273 13.8867 114.127 13.46C114.993 13.02 116.04 12.8 117.267 12.8C118.173 12.8 118.987 12.92 119.707 13.16C120.427 13.4 121.04 13.7333 121.547 14.16C122.053 14.5733 122.447 15.06 122.727 15.62C123.007 16.18 123.153 16.7867 123.167 17.44C123.18 17.56 123.14 17.66 123.047 17.74C122.967 17.82 122.867 17.86 122.747 17.86H120.847C120.7 17.86 120.58 17.8267 120.487 17.76C120.393 17.68 120.327 17.5533 120.287 17.38C120.073 16.5 119.707 15.9 119.187 15.58C118.667 15.26 118.02 15.1 117.247 15.1C116.353 15.1 115.64 15.3533 115.107 15.86C114.573 16.3533 114.287 17.1733 114.247 18.32C114.207 19.4133 114.207 20.5333 114.247 21.68C114.287 22.8267 114.573 23.6533 115.107 24.16C115.64 24.6533 116.353 24.9 117.247 24.9C118.02 24.9 118.667 24.74 119.187 24.42C119.707 24.0867 120.073 23.4867 120.287 22.62C120.327 22.4333 120.393 22.3067 120.487 22.24C120.58 22.1733 120.7 22.14 120.847 22.14H122.747C122.867 22.14 122.967 22.18 123.047 22.26C123.14 22.34 123.18 22.44 123.167 22.56C123.153 23.2133 123.007 23.82 122.727 24.38C122.447 24.94 122.053 25.4333 121.547 25.86C121.04 26.2733 120.427 26.6 119.707 26.84C118.987 27.08 118.173 27.2 117.267 27.2ZM130.919 27.2C129.732 27.2 128.712 27.0067 127.859 26.62C127.005 26.22 126.339 25.6133 125.859 24.8C125.379 23.9733 125.119 22.9467 125.079 21.72C125.065 21.1467 125.059 20.58 125.059 20.02C125.059 19.46 125.065 18.8867 125.079 18.3C125.119 17.0867 125.385 16.0733 125.879 15.26C126.372 14.4467 127.045 13.8333 127.899 13.42C128.765 13.0067 129.772 12.8 130.919 12.8C132.065 12.8 133.072 13.0067 133.939 13.42C134.805 13.8333 135.485 14.4467 135.979 15.26C136.472 16.0733 136.739 17.0867 136.779 18.3C136.805 18.8867 136.819 19.46 136.819 20.02C136.819 20.58 136.805 21.1467 136.779 21.72C136.739 22.9467 136.479 23.9733 135.999 24.8C135.519 25.6133 134.845 26.22 133.979 26.62C133.125 27.0067 132.105 27.2 130.919 27.2ZM130.919 24.9C131.785 24.9 132.492 24.6467 133.039 24.14C133.585 23.62 133.879 22.78 133.919 21.62C133.945 21.0333 133.959 20.4933 133.959 20C133.959 19.4933 133.945 18.9533 133.919 18.38C133.892 17.6067 133.745 16.98 133.479 16.5C133.225 16.0067 132.879 15.6533 132.439 15.44C131.999 15.2133 131.492 15.1 130.919 15.1C130.359 15.1 129.859 15.2133 129.419 15.44C128.979 15.6533 128.625 16.0067 128.359 16.5C128.105 16.98 127.965 17.6067 127.939 18.38C127.925 18.9533 127.919 19.4933 127.919 20C127.919 20.4933 127.925 21.0333 127.939 21.62C127.979 22.78 128.272 23.62 128.819 24.14C129.365 24.6467 130.065 24.9 130.919 24.9ZM139.925 27C139.791 27 139.678 26.9533 139.585 26.86C139.491 26.7667 139.445 26.6533 139.445 26.52V13.5C139.445 13.3533 139.491 13.2333 139.585 13.14C139.678 13.0467 139.791 13 139.925 13H144.805C146.151 13 147.258 13.2067 148.125 13.62C149.005 14.0333 149.665 14.6467 150.105 15.46C150.558 16.2733 150.791 17.2667 150.805 18.44C150.831 19.0267 150.845 19.5467 150.845 20C150.845 20.4533 150.831 20.9667 150.805 21.54C150.778 22.78 150.551 23.8067 150.125 24.62C149.698 25.42 149.051 26.02 148.185 26.42C147.331 26.8067 146.238 27 144.905 27H139.925ZM142.225 24.7H144.805C145.551 24.7 146.158 24.5933 146.625 24.38C147.091 24.1667 147.431 23.8267 147.645 23.36C147.871 22.88 147.991 22.2533 148.005 21.48C148.018 21.08 148.025 20.7333 148.025 20.44C148.038 20.1333 148.038 19.8333 148.025 19.54C148.025 19.2333 148.018 18.8867 148.005 18.5C147.978 17.4067 147.705 16.6 147.185 16.08C146.665 15.56 145.838 15.3 144.705 15.3H142.225V24.7ZM153.987 27C153.854 27 153.741 26.9533 153.647 26.86C153.554 26.7667 153.507 26.6533 153.507 26.52V13.5C153.507 13.3533 153.554 13.2333 153.647 13.14C153.741 13.0467 153.854 13 153.987 13H162.787C162.934 13 163.054 13.0467 163.147 13.14C163.241 13.2333 163.287 13.3533 163.287 13.5V14.82C163.287 14.9533 163.241 15.0667 163.147 15.16C163.054 15.2533 162.934 15.3 162.787 15.3H156.207V18.84H162.347C162.494 18.84 162.614 18.8867 162.707 18.98C162.801 19.06 162.847 19.1733 162.847 19.32V20.56C162.847 20.7067 162.801 20.8267 162.707 20.92C162.614 21 162.494 21.04 162.347 21.04H156.207V24.7H162.947C163.094 24.7 163.214 24.7467 163.307 24.84C163.401 24.9333 163.447 25.0533 163.447 25.2V26.52C163.447 26.6533 163.401 26.7667 163.307 26.86C163.214 26.9533 163.094 27 162.947 27H153.987ZM175.379 27.2C174.139 27.2 173.099 27.02 172.259 26.66C171.432 26.2867 170.799 25.8067 170.359 25.22C169.932 24.62 169.706 23.9933 169.679 23.34C169.679 23.22 169.719 23.12 169.799 23.04C169.879 22.96 169.979 22.92 170.099 22.92H171.879C172.052 22.92 172.179 22.96 172.259 23.04C172.352 23.1067 172.432 23.1933 172.499 23.3C172.579 23.5533 172.732 23.8067 172.959 24.06C173.186 24.3 173.492 24.5 173.879 24.66C174.279 24.82 174.779 24.9 175.379 24.9C176.339 24.9 177.052 24.74 177.519 24.42C177.999 24.1 178.239 23.6667 178.239 23.12C178.239 22.7333 178.112 22.4267 177.859 22.2C177.606 21.96 177.212 21.7467 176.679 21.56C176.159 21.36 175.466 21.1533 174.599 20.94C173.599 20.7 172.759 20.4133 172.079 20.08C171.412 19.7333 170.906 19.3 170.559 18.78C170.226 18.26 170.059 17.6 170.059 16.8C170.059 16.0267 170.266 15.34 170.679 14.74C171.106 14.14 171.706 13.6667 172.479 13.32C173.266 12.9733 174.199 12.8 175.279 12.8C176.146 12.8 176.912 12.92 177.579 13.16C178.246 13.3867 178.799 13.6933 179.239 14.08C179.679 14.4533 180.012 14.86 180.239 15.3C180.479 15.7267 180.606 16.1467 180.619 16.56C180.619 16.6667 180.579 16.7667 180.499 16.86C180.432 16.94 180.332 16.98 180.199 16.98H178.339C178.232 16.98 178.126 16.9533 178.019 16.9C177.912 16.8467 177.826 16.7467 177.759 16.6C177.679 16.1867 177.419 15.8333 176.979 15.54C176.539 15.2467 175.972 15.1 175.279 15.1C174.559 15.1 173.979 15.2333 173.539 15.5C173.099 15.7667 172.879 16.18 172.879 16.74C172.879 17.1133 172.986 17.4267 173.199 17.68C173.426 17.92 173.779 18.1333 174.259 18.32C174.752 18.5067 175.399 18.7067 176.199 18.92C177.332 19.1733 178.259 19.4667 178.979 19.8C179.699 20.1333 180.226 20.56 180.559 21.08C180.892 21.5867 181.059 22.2333 181.059 23.02C181.059 23.9 180.819 24.6533 180.339 25.28C179.872 25.8933 179.212 26.3667 178.359 26.7C177.506 27.0333 176.512 27.2 175.379 27.2ZM188.731 27.2C187.544 27.2 186.524 27.0067 185.671 26.62C184.818 26.22 184.151 25.6133 183.671 24.8C183.191 23.9733 182.931 22.9467 182.891 21.72C182.878 21.1467 182.871 20.58 182.871 20.02C182.871 19.46 182.878 18.8867 182.891 18.3C182.931 17.0867 183.198 16.0733 183.691 15.26C184.184 14.4467 184.858 13.8333 185.711 13.42C186.578 13.0067 187.584 12.8 188.731 12.8C189.878 12.8 190.884 13.0067 191.751 13.42C192.618 13.8333 193.298 14.4467 193.791 15.26C194.284 16.0733 194.551 17.0867 194.591 18.3C194.618 18.8867 194.631 19.46 194.631 20.02C194.631 20.58 194.618 21.1467 194.591 21.72C194.551 22.9467 194.291 23.9733 193.811 24.8C193.331 25.6133 192.658 26.22 191.791 26.62C190.938 27.0067 189.918 27.2 188.731 27.2ZM188.731 24.9C189.598 24.9 190.304 24.6467 190.851 24.14C191.398 23.62 191.691 22.78 191.731 21.62C191.758 21.0333 191.771 20.4933 191.771 20C191.771 19.4933 191.758 18.9533 191.731 18.38C191.704 17.6067 191.558 16.98 191.291 16.5C191.038 16.0067 190.691 15.6533 190.251 15.44C189.811 15.2133 189.304 15.1 188.731 15.1C188.171 15.1 187.671 15.2133 187.231 15.44C186.791 15.6533 186.438 16.0067 186.171 16.5C185.918 16.98 185.778 17.6067 185.751 18.38C185.738 18.9533 185.731 19.4933 185.731 20C185.731 20.4933 185.738 21.0333 185.751 21.62C185.791 22.78 186.084 23.62 186.631 24.14C187.178 24.6467 187.878 24.9 188.731 24.9ZM197.737 27C197.604 27 197.491 26.9533 197.397 26.86C197.304 26.7667 197.257 26.6533 197.257 26.52V13.48C197.257 13.3467 197.304 13.2333 197.397 13.14C197.491 13.0467 197.604 13 197.737 13H199.597C199.731 13 199.844 13.0467 199.937 13.14C200.031 13.2333 200.077 13.3467 200.077 13.48V24.62H206.417C206.564 24.62 206.684 24.6667 206.777 24.76C206.871 24.8533 206.917 24.9733 206.917 25.12V26.52C206.917 26.6533 206.871 26.7667 206.777 26.86C206.684 26.9533 206.564 27 206.417 27H197.737ZM214.146 27.2C212.986 27.2 211.979 27.0067 211.126 26.62C210.273 26.22 209.613 25.6133 209.146 24.8C208.679 23.9733 208.446 22.92 208.446 21.64V13.5C208.446 13.3533 208.493 13.2333 208.586 13.14C208.679 13.0467 208.793 13 208.926 13H210.746C210.893 13 211.006 13.0467 211.086 13.14C211.179 13.2333 211.226 13.3533 211.226 13.5V21.64C211.226 22.7333 211.486 23.5467 212.006 24.08C212.526 24.6 213.239 24.86 214.146 24.86C215.053 24.86 215.759 24.6 216.266 24.08C216.786 23.5467 217.046 22.7333 217.046 21.64V13.5C217.046 13.3533 217.093 13.2333 217.186 13.14C217.279 13.0467 217.399 13 217.546 13H219.346C219.493 13 219.606 13.0467 219.686 13.14C219.779 13.2333 219.826 13.3533 219.826 13.5V21.64C219.826 22.92 219.593 23.9733 219.126 24.8C218.673 25.6133 218.019 26.22 217.166 26.62C216.326 27.0067 215.319 27.2 214.146 27.2ZM226.384 27C226.25 27 226.137 26.9533 226.044 26.86C225.95 26.7667 225.904 26.6533 225.904 26.52V15.46H222.204C222.07 15.46 221.957 15.4133 221.864 15.32C221.77 15.2267 221.724 15.1133 221.724 14.98V13.5C221.724 13.3533 221.77 13.2333 221.864 13.14C221.957 13.0467 222.07 13 222.204 13H232.404C232.55 13 232.67 13.0467 232.764 13.14C232.857 13.2333 232.904 13.3533 232.904 13.5V14.98C232.904 15.1133 232.857 15.2267 232.764 15.32C232.67 15.4133 232.55 15.46 232.404 15.46H228.724V26.52C228.724 26.6533 228.677 26.7667 228.584 26.86C228.49 26.9533 228.37 27 228.224 27H226.384ZM235.413 27C235.28 27 235.166 26.9533 235.073 26.86C234.98 26.7667 234.933 26.6533 234.933 26.52V13.48C234.933 13.3467 234.98 13.2333 235.073 13.14C235.166 13.0467 235.28 13 235.413 13H237.293C237.44 13 237.553 13.0467 237.633 13.14C237.726 13.2333 237.773 13.3467 237.773 13.48V26.52C237.773 26.6533 237.726 26.7667 237.633 26.86C237.553 26.9533 237.44 27 237.293 27H235.413ZM246.29 27.2C245.103 27.2 244.083 27.0067 243.23 26.62C242.376 26.22 241.71 25.6133 241.23 24.8C240.75 23.9733 240.49 22.9467 240.45 21.72C240.436 21.1467 240.43 20.58 240.43 20.02C240.43 19.46 240.436 18.8867 240.45 18.3C240.49 17.0867 240.756 16.0733 241.25 15.26C241.743 14.4467 242.416 13.8333 243.27 13.42C244.136 13.0067 245.143 12.8 246.29 12.8C247.436 12.8 248.443 13.0067 249.31 13.42C250.176 13.8333 250.856 14.4467 251.35 15.26C251.843 16.0733 252.11 17.0867 252.15 18.3C252.176 18.8867 252.19 19.46 252.19 20.02C252.19 20.58 252.176 21.1467 252.15 21.72C252.11 22.9467 251.85 23.9733 251.37 24.8C250.89 25.6133 250.216 26.22 249.35 26.62C248.496 27.0067 247.476 27.2 246.29 27.2ZM246.29 24.9C247.156 24.9 247.863 24.6467 248.41 24.14C248.956 23.62 249.25 22.78 249.29 21.62C249.316 21.0333 249.33 20.4933 249.33 20C249.33 19.4933 249.316 18.9533 249.29 18.38C249.263 17.6067 249.116 16.98 248.85 16.5C248.596 16.0067 248.25 15.6533 247.81 15.44C247.37 15.2133 246.863 15.1 246.29 15.1C245.73 15.1 245.23 15.2133 244.79 15.44C244.35 15.6533 243.996 16.0067 243.73 16.5C243.476 16.98 243.336 17.6067 243.31 18.38C243.296 18.9533 243.29 19.4933 243.29 20C243.29 20.4933 243.296 21.0333 243.31 21.62C243.35 22.78 243.643 23.62 244.19 24.14C244.736 24.6467 245.436 24.9 246.29 24.9ZM255.296 27C255.163 27 255.049 26.9533 254.956 26.86C254.863 26.7667 254.816 26.6533 254.816 26.52V13.5C254.816 13.3533 254.863 13.2333 254.956 13.14C255.049 13.0467 255.163 13 255.296 13H256.836C257.023 13 257.156 13.0467 257.236 13.14C257.329 13.22 257.389 13.28 257.416 13.32L263.176 22.28V13.5C263.176 13.3533 263.216 13.2333 263.296 13.14C263.389 13.0467 263.509 13 263.656 13H265.336C265.483 13 265.603 13.0467 265.696 13.14C265.789 13.2333 265.836 13.3533 265.836 13.5V26.5C265.836 26.6467 265.789 26.7667 265.696 26.86C265.603 26.9533 265.489 27 265.356 27H263.796C263.609 27 263.476 26.9533 263.396 26.86C263.316 26.7667 263.256 26.7067 263.216 26.68L257.476 17.92V26.52C257.476 26.6533 257.429 26.7667 257.336 26.86C257.243 26.9533 257.123 27 256.976 27H255.296ZM273.816 27.2C272.576 27.2 271.536 27.02 270.696 26.66C269.87 26.2867 269.236 25.8067 268.796 25.22C268.37 24.62 268.143 23.9933 268.116 23.34C268.116 23.22 268.156 23.12 268.236 23.04C268.316 22.96 268.416 22.92 268.536 22.92H270.316C270.49 22.92 270.616 22.96 270.696 23.04C270.79 23.1067 270.87 23.1933 270.936 23.3C271.016 23.5533 271.17 23.8067 271.396 24.06C271.623 24.3 271.93 24.5 272.316 24.66C272.716 24.82 273.216 24.9 273.816 24.9C274.776 24.9 275.49 24.74 275.956 24.42C276.436 24.1 276.676 23.6667 276.676 23.12C276.676 22.7333 276.55 22.4267 276.296 22.2C276.043 21.96 275.65 21.7467 275.116 21.56C274.596 21.36 273.903 21.1533 273.036 20.94C272.036 20.7 271.196 20.4133 270.516 20.08C269.85 19.7333 269.343 19.3 268.996 18.78C268.663 18.26 268.496 17.6 268.496 16.8C268.496 16.0267 268.703 15.34 269.116 14.74C269.543 14.14 270.143 13.6667 270.916 13.32C271.703 12.9733 272.636 12.8 273.716 12.8C274.583 12.8 275.35 12.92 276.016 13.16C276.683 13.3867 277.236 13.6933 277.676 14.08C278.116 14.4533 278.45 14.86 278.676 15.3C278.916 15.7267 279.043 16.1467 279.056 16.56C279.056 16.6667 279.016 16.7667 278.936 16.86C278.87 16.94 278.77 16.98 278.636 16.98H276.776C276.67 16.98 276.563 16.9533 276.456 16.9C276.35 16.8467 276.263 16.7467 276.196 16.6C276.116 16.1867 275.856 15.8333 275.416 15.54C274.976 15.2467 274.41 15.1 273.716 15.1C272.996 15.1 272.416 15.2333 271.976 15.5C271.536 15.7667 271.316 16.18 271.316 16.74C271.316 17.1133 271.423 17.4267 271.636 17.68C271.863 17.92 272.216 18.1333 272.696 18.32C273.19 18.5067 273.836 18.7067 274.636 18.92C275.77 19.1733 276.696 19.4667 277.416 19.8C278.136 20.1333 278.663 20.56 278.996 21.08C279.33 21.5867 279.496 22.2333 279.496 23.02C279.496 23.9 279.256 24.6533 278.776 25.28C278.31 25.8933 277.65 26.3667 276.796 26.7C275.943 27.0333 274.95 27.2 273.816 27.2Z" fill="#3F6587"/>
<defs>
<linearGradient id="paint0_linear_831_1863" x1="-0.772386" y1="14.6708" x2="0.593626" y2="22.5813" gradientUnits="userSpaceOnUse">
<stop stop-color="#E79B3B"/>
<stop offset="1" stop-color="white"/>
</linearGradient>
</defs>
</svg>
